<svg width="40" height="40" viewBox="0 0 40 40" fill="none" xmlns="http://www.w3.org/2000/svg">
<path fill-rule="evenodd" clip-rule="evenodd" d="M26.4876 24.3477L34.5572 32.4175C34.8409 32.7014 35.0001 33.0863 35 33.4875C34.9999 33.8888 34.8403 34.2736 34.5565 34.5572C34.2727 34.8409 33.8878 35.0001 33.4865 35C33.0852 34.9999 32.7005 34.8403 32.4168 34.5565L24.3472 26.4867C21.9349 28.3551 18.9014 29.2344 15.8638 28.9456C12.8262 28.6568 10.0127 27.2217 7.9957 24.9321C5.97867 22.6425 4.90961 19.6705 5.00599 16.6207C5.10238 13.5708 6.35698 10.6723 8.51456 8.51465C10.6721 6.35701 13.5706 5.10238 16.6204 5.00599C19.6702 4.9096 22.6421 5.97869 24.9316 7.99577C27.2211 10.0129 28.6562 12.8264 28.945 15.8641C29.2338 18.9017 28.3545 21.9353 26.4861 24.3477H26.4876ZM17.0006 25.9992C19.3874 25.9992 21.6765 25.051 23.3642 23.3632C25.052 21.6754 26.0001 19.3863 26.0001 16.9994C26.0001 14.6125 25.052 12.3233 23.3642 10.6355C21.6765 8.94774 19.3874 7.99955 17.0006 7.99955C14.6137 7.99955 12.3246 8.94774 10.6369 10.6355C8.94914 12.3233 8.00098 14.6125 8.00098 16.9994C8.00098 19.3863 8.94914 21.6754 10.6369 23.3632C12.3246 25.051 14.6137 25.9992 17.0006 25.9992Z" fill="white"/>
</svg>
